<svg width="100" height="100" viewBox="0 0 100 100" fill="none" xmlns="http://www.w3.org/2000/svg">
<g id="Frame" clip-path="url(#clip0_36_201)">
<g id="Group">
<path id="Vector" d="M71.4844 29.6875C69.8664 29.6875 68.5547 30.9992 68.5547 32.6172V35.7602L52.9297 21.5557V13.6719H65.625C67.243 13.6719 68.5547 12.3602 68.5547 10.7422V2.92969C68.5547 1.31172 67.243 0 65.625 0H50C48.382 0 47.0703 1.31172 47.0703 2.92969V21.5557L31.4453 35.7602V32.6172C31.4453 30.9992 30.1336 29.6875 28.5156 29.6875C26.8977 29.6875 25.5859 30.9992 25.5859 32.6172V100H35.3516V79.4922C35.3516 77.8742 36.6633 76.5625 38.2812 76.5625H61.7188C63.3367 76.5625 64.6484 77.8742 64.6484 79.4922V100H74.4141V32.6172C74.4141 30.9992 73.1023 29.6875 71.4844 29.6875ZM44.1406 70.7031H38.2812C36.6633 70.7031 35.3516 69.3914 35.3516 67.7734C35.3516 66.1555 36.6633 64.8438 38.2812 64.8438H44.1406C45.7586 64.8438 47.0703 66.1555 47.0703 67.7734C47.0703 69.3914 45.7586 70.7031 44.1406 70.7031ZM39.2578 48.2422C39.2578 42.3189 44.0768 37.5 50 37.5C55.9232 37.5 60.7422 42.3189 60.7422 48.2422C60.7422 54.1654 55.9232 58.9844 50 58.9844C44.0768 58.9844 39.2578 54.1654 39.2578 48.2422ZM61.7188 70.7031H55.8594C54.2414 70.7031 52.9297 69.3914 52.9297 67.7734C52.9297 66.1555 54.2414 64.8438 55.8594 64.8438H61.7188C63.3367 64.8438 64.6484 66.1555 64.6484 67.7734C64.6484 69.3914 63.3367 70.7031 61.7188 70.7031ZM6.05469 50.1953C6.05469 48.5773 4.74297 47.2656 3.125 47.2656C1.50703 47.2656 0.195312 48.5773 0.195312 50.1953V97.0703C0.195312 98.6883 1.50703 100 3.125 100H7.03125V85.3516C7.03125 83.7336 8.34297 82.4219 9.96094 82.4219C11.5789 82.4219 12.8906 83.7336 12.8906 85.3516V100H19.7266V49.8699L6.05469 55.5664V50.1953ZM7.03125 67.7734C7.03125 66.1555 8.34297 64.8438 9.96094 64.8438C11.5789 64.8438 12.8906 66.1555 12.8906 67.7734V73.6328C12.8906 75.2508 11.5789 76.5625 9.96094 76.5625C8.34297 76.5625 7.03125 75.2508 7.03125 73.6328V67.7734ZM96.875 47.2656C95.257 47.2656 93.9453 48.5773 93.9453 50.1953V55.5664L80.2734 49.8697V100H87.1094V85.3516C87.1094 83.7336 88.4211 82.4219 90.0391 82.4219C91.657 82.4219 92.9688 83.7336 92.9688 85.3516V100H96.875C98.493 100 99.8047 98.6883 99.8047 97.0703V50.1953C99.8047 48.5773 98.493 47.2656 96.875 47.2656ZM92.9688 73.6328C92.9688 75.2508 91.657 76.5625 90.0391 76.5625C88.4211 76.5625 87.1094 75.2508 87.1094 73.6328V67.7734C87.1094 66.1555 88.4211 64.8438 90.0391 64.8438C91.657 64.8438 92.9688 66.1555 92.9688 67.7734V73.6328Z" fill="white"/>
<path id="Vector_2" d="M52.9297 82.4219H58.7891V100H52.9297V82.4219ZM41.2109 82.4219H47.0703V100H41.2109V82.4219Z" fill="white"/>
<path id="Vector_3" d="M50 53.125C52.6967 53.125 54.8828 50.9389 54.8828 48.2422C54.8828 45.5455 52.6967 43.3594 50 43.3594C47.3033 43.3594 45.1172 45.5455 45.1172 48.2422C45.1172 50.9389 47.3033 53.125 50 53.125Z" fill="white"/>
</g>
</g>
<defs>
<clipPath id="clip0_36_201">
<rect width="100" height="100" fill="white"/>
</clipPath>
</defs>
</svg>
