<svg width="88" height="88" viewBox="0 0 88 88" fill="none" xmlns="http://www.w3.org/2000/svg">
<g id="iconoir:quote-solid">
<path id="Vector" fill-rule="evenodd" clip-rule="evenodd" d="M33.781 41.25C33.473 38.412 32.6516 36.146 31.2216 34.1367C29.304 31.4563 26.0883 28.952 20.7716 26.29C20.4305 26.14 20.1235 25.9224 19.8691 25.6501C19.6147 25.3779 19.4183 25.0568 19.2918 24.7064C19.1652 24.356 19.1113 23.9835 19.1331 23.6115C19.1549 23.2396 19.2521 22.8759 19.4187 22.5427C19.5853 22.2094 19.8179 21.9135 20.1024 21.6729C20.3868 21.4323 20.7172 21.252 21.0735 21.1429C21.4298 21.0339 21.8045 20.9984 22.1749 21.0386C22.5453 21.0787 22.9037 21.1938 23.2283 21.3767C28.9116 24.2147 33.0293 27.2103 35.695 30.9467C38.412 34.7453 39.4166 39.0243 39.4166 44L39.4166 60.5C39.4166 62.2018 38.7406 63.8339 37.5372 65.0373C36.3339 66.2406 34.7018 66.9167 33 66.9167L18.3333 66.9167C16.6315 66.9167 14.9994 66.2406 13.796 65.0373C12.5927 63.8339 11.9166 62.2018 11.9166 60.5L11.9166 47.6667C11.9166 44.1247 14.7913 41.25 18.3333 41.25L33.781 41.25ZM70.4476 41.25C70.1396 38.412 69.3183 36.146 67.8883 34.1367C65.9706 31.4563 62.755 28.952 57.4383 26.29C57.0972 26.1401 56.7902 25.9224 56.5358 25.6501C56.2814 25.3779 56.085 25.0568 55.9584 24.7064C55.8319 24.356 55.7779 23.9835 55.7997 23.6115C55.8215 23.2396 55.9187 22.8759 56.0853 22.5427C56.252 22.2094 56.4846 21.9135 56.769 21.6729C57.0535 21.4323 57.3839 21.252 57.7402 21.1429C58.0964 21.0339 58.4711 20.9984 58.8416 21.0386C59.212 21.0787 59.5703 21.1938 59.895 21.3767C65.5783 24.2147 69.696 27.2103 72.3616 30.9467C75.0786 34.7453 76.0833 39.0243 76.0833 44L76.0833 60.5C76.0833 62.2018 75.4072 63.8339 74.2039 65.0373C73.0005 66.2406 71.3684 66.9167 69.6666 66.9167L55 66.9167C53.2981 66.9167 51.666 66.2406 50.4627 65.0373C49.2593 63.8339 48.5833 62.2018 48.5833 60.5L48.5833 47.6667C48.5833 44.1247 51.458 41.25 55 41.25L70.4476 41.25Z" fill="black"/>
</g>
</svg>
