<svg width="88" height="88" viewBox="0 0 88 88" fill="none" xmlns="http://www.w3.org/2000/svg">
<g id="iconoir:quote-solid">
<path id="Vector" fill-rule="evenodd" clip-rule="evenodd" d="M54.219 41.25C54.527 38.412 55.3483 36.146 56.7783 34.1367C58.696 31.4563 61.9116 28.952 67.2283 26.29C67.5694 26.1401 67.8764 25.9224 68.1308 25.6501C68.3852 25.3779 68.5816 25.0568 68.7082 24.7064C68.8347 24.356 68.8887 23.9835 68.8669 23.6115C68.8451 23.2396 68.7479 22.8759 68.5813 22.5427C68.4146 22.2094 68.182 21.9135 67.8976 21.6729C67.6131 21.4323 67.2827 21.252 66.9264 21.1429C66.5702 21.0339 66.1955 20.9984 65.825 21.0386C65.4546 21.0787 65.0962 21.1938 64.7716 21.3767C59.0883 24.2147 54.9706 27.2103 52.305 30.9467C49.588 34.7453 48.5833 39.0243 48.5833 44L48.5833 60.5C48.5833 62.2018 49.2594 63.8339 50.4627 65.0373C51.6661 66.2406 53.2982 66.9167 55 66.9167L69.6666 66.9167C71.3685 66.9167 73.0006 66.2406 74.2039 65.0373C75.4073 63.8339 76.0833 62.2018 76.0833 60.5L76.0833 47.6667C76.0833 44.1247 73.2086 41.25 69.6666 41.25L54.219 41.25ZM17.5523 41.25C17.8603 38.412 18.6817 36.146 20.1117 34.1367C22.0293 31.4563 25.245 28.952 30.5616 26.29C30.9027 26.1401 31.2098 25.9224 31.4642 25.6501C31.7186 25.3779 31.915 25.0568 32.0415 24.7064C32.168 24.356 32.222 23.9835 32.2002 23.6115C32.1784 23.2396 32.0812 22.8759 31.9146 22.5427C31.748 22.2094 31.5154 21.9135 31.2309 21.6729C30.9464 21.4323 30.616 21.252 30.2598 21.1429C29.9035 21.0339 29.5288 20.9984 29.1584 21.0386C28.788 21.0787 28.4296 21.1938 28.105 21.3767C22.4217 24.2147 18.304 27.2103 15.6383 30.9467C12.9213 34.7453 11.9167 39.0243 11.9167 44L11.9167 60.5C11.9167 62.2018 12.5927 63.8339 13.7961 65.0373C14.9994 66.2406 16.6315 66.9167 18.3333 66.9167L33 66.9167C34.7018 66.9167 36.3339 66.2406 37.5373 65.0373C38.7406 63.8339 39.4167 62.2018 39.4167 60.5L39.4167 47.6667C39.4167 44.1247 36.542 41.25 33 41.25L17.5523 41.25Z" fill="black"/>
</g>
</svg>
