<svg width="100" height="100" viewBox="0 0 100 100" fill="none" xmlns="http://www.w3.org/2000/svg">
<g id="Frame">
<g id="Group">
<path id="Vector" d="M75 95.8337H25C23.8949 95.8337 22.8351 95.3947 22.0537 94.6133C21.2723 93.8319 20.8333 92.7721 20.8333 91.667C20.8333 90.5619 21.2723 89.5021 22.0537 88.7207C22.8351 87.9393 23.8949 87.5003 25 87.5003H75C76.105 87.5003 77.1648 87.9393 77.9462 88.7207C78.7276 89.5021 79.1666 90.5619 79.1666 91.667C79.1666 92.7721 78.7276 93.8319 77.9462 94.6133C77.1648 95.3947 76.105 95.8337 75 95.8337ZM95.8333 25.0003V58.3337C95.8333 61.0695 95.2944 63.7786 94.2475 66.3062C93.2005 68.8338 91.6659 71.1305 89.7313 73.065C87.7968 74.9996 85.5001 76.5342 82.9725 77.5811C80.4449 78.6281 77.7358 79.167 75 79.167H25C22.2641 79.167 19.555 78.6281 17.0274 77.5811C14.4998 76.5342 12.2031 74.9996 10.2686 73.065C6.36156 69.158 4.16663 63.859 4.16663 58.3337V25.0003C4.16663 19.475 6.36156 14.1759 10.2686 10.2689C14.1756 6.36193 19.4746 4.16699 25 4.16699H75C77.7358 4.16699 80.4449 4.70586 82.9725 5.75284C85.5001 6.79981 87.7968 8.33438 89.7313 10.2689C91.6659 12.2035 93.2005 14.5001 94.2475 17.0278C95.2944 19.5554 95.8333 22.2645 95.8333 25.0003ZM20.8333 33.3337C20.8333 34.4387 21.2723 35.4985 22.0537 36.2799C22.8351 37.0613 23.8949 37.5003 25 37.5003H50C51.105 37.5003 52.1648 37.0613 52.9462 36.2799C53.7276 35.4985 54.1666 34.4387 54.1666 33.3337C54.1666 32.2286 53.7276 31.1688 52.9462 30.3874C52.1648 29.606 51.105 29.167 50 29.167H25C23.8949 29.167 22.8351 29.606 22.0537 30.3874C21.2723 31.1688 20.8333 32.2286 20.8333 33.3337ZM79.1666 50.0003C79.1666 48.8953 78.7276 47.8354 77.9462 47.054C77.1648 46.2726 76.105 45.8337 75 45.8337H25C23.8949 45.8337 22.8351 46.2726 22.0537 47.054C21.2723 47.8354 20.8333 48.8953 20.8333 50.0003C20.8333 51.1054 21.2723 52.1652 22.0537 52.9466C22.8351 53.728 23.8949 54.167 25 54.167H75C76.105 54.167 77.1648 53.728 77.9462 52.9466C78.7276 52.1652 79.1666 51.1054 79.1666 50.0003Z" fill="white"/>
</g>
</g>
</svg>
