<svg width="74" height="74" viewBox="0 0 74 74" fill="none" xmlns="http://www.w3.org/2000/svg">
<g id="Group 237614">
<circle id="Ellipse 165" cx="37" cy="37" r="37" fill="#FFEBD1"/>
<g id="device-message">
<path id="Vector" d="M49.8334 37.3333V40.1667C49.8334 45.4167 46.8334 47.6667 42.3334 47.6667H27.3334C22.8334 47.6667 19.8334 45.4167 19.8334 40.1667V31.1667C19.8334 25.9167 22.8334 23.6667 27.3334 23.6667H31.8334C31.6167 24.3 31.5 25 31.5 25.75V32.2501C31.5 33.8667 32.0334 35.2334 32.9834 36.1834C33.9334 37.1334 35.3 37.6667 36.9167 37.6667V39.9834C36.9167 40.8334 37.8834 41.3499 38.6 40.8833L43.4167 37.6667H47.75C48.5 37.6667 49.2 37.5499 49.8334 37.3333Z" stroke="#F49217" stroke-width="2" stroke-miterlimit="10" stroke-linecap="round" stroke-linejoin="round"/>
<path id="Vector_2" d="M53.1667 25.75V32.25C53.1667 34.7334 51.9 36.5999 49.8333 37.3332C49.2 37.5499 48.5 37.6667 47.75 37.6667H43.4167L38.6 40.8832C37.8833 41.3499 36.9167 40.8334 36.9167 39.9834V37.6667C35.3 37.6667 33.9333 37.1333 32.9833 36.1833C32.0333 35.2333 31.5 33.8667 31.5 32.25V25.75C31.5 25 31.6167 24.3 31.8333 23.6666C32.5667 21.6 34.4333 20.3333 36.9167 20.3333H47.75C51 20.3333 53.1667 22.5 53.1667 25.75Z" stroke="#F49217" stroke-width="2" stroke-miterlimit="10" stroke-linecap="round" stroke-linejoin="round"/>
<path id="Vector_3" d="M28.8334 53.6667H40.8334" stroke="#F49217" stroke-width="2" stroke-miterlimit="10" stroke-linecap="round" stroke-linejoin="round"/>
<path id="Vector_4" d="M34.8334 47.6667V53.6666" stroke="#F49217" stroke-width="2" stroke-miterlimit="10" stroke-linecap="round" stroke-linejoin="round"/>
<path id="Vector_5" d="M47.3258 29.0833H47.3408" stroke="#F49217" stroke-width="2" stroke-linecap="round" stroke-linejoin="round"/>
<path id="Vector_6" d="M42.6595 29.0833H42.6745" stroke="#F49217" stroke-width="2" stroke-linecap="round" stroke-linejoin="round"/>
<path id="Vector_7" d="M37.9923 29.0833H38.0073" stroke="#F49217" stroke-width="2" stroke-linecap="round" stroke-linejoin="round"/>
</g>
</g>
</svg>
