<svg width="74" height="74" viewBox="0 0 74 74" fill="none" xmlns="http://www.w3.org/2000/svg">
<g id="Group 237614">
<circle id="Ellipse 165" cx="37" cy="37" r="37" fill="#FFEBD1"/>
<g id="element-4">
<path id="Vector" d="M53.1667 35.1667V23.8334C53.1667 21.3334 52.1 20.3334 49.45 20.3334H42.7167C40.0667 20.3334 39 21.3334 39 23.8334V35.1667C39 37.6667 40.0667 38.6667 42.7167 38.6667H49.45C52.1 38.6667 53.1667 37.6667 53.1667 35.1667Z" stroke="#F49217" stroke-width="2" stroke-linecap="round" stroke-linejoin="round"/>
<path id="Vector_2" d="M53.1667 50.1666V47.1666C53.1667 44.6666 52.1 43.6666 49.45 43.6666H42.7167C40.0667 43.6666 39 44.6666 39 47.1666V50.1666C39 52.6666 40.0667 53.6666 42.7167 53.6666H49.45C52.1 53.6666 53.1667 52.6666 53.1667 50.1666Z" stroke="#F49217" stroke-width="2" stroke-linecap="round" stroke-linejoin="round"/>
<path id="Vector_3" d="M33.9999 38.8334V50.1667C33.9999 52.6667 32.9333 53.6667 30.2833 53.6667H23.5499C20.8999 53.6667 19.8333 52.6667 19.8333 50.1667V38.8334C19.8333 36.3334 20.8999 35.3334 23.5499 35.3334H30.2833C32.9333 35.3334 33.9999 36.3334 33.9999 38.8334Z" stroke="#F49217" stroke-width="2" stroke-linecap="round" stroke-linejoin="round"/>
<path id="Vector_4" d="M33.9999 23.8334V26.8334C33.9999 29.3334 32.9333 30.3334 30.2833 30.3334H23.5499C20.8999 30.3334 19.8333 29.3334 19.8333 26.8334V23.8334C19.8333 21.3334 20.8999 20.3334 23.5499 20.3334H30.2833C32.9333 20.3334 33.9999 21.3334 33.9999 23.8334Z" stroke="#F49217" stroke-width="2" stroke-linecap="round" stroke-linejoin="round"/>
</g>
</g>
</svg>
