<svg width="39" height="39" viewBox="0 0 39 39" fill="none" xmlns="http://www.w3.org/2000/svg">
<g id="fb">
<path id="Oval Copy" d="M19.2544 38.2756C29.6073 38.2756 38 29.9312 38 19.6378C38 9.34443 29.6073 1 19.2544 1C8.90148 1 0.508789 9.34443 0.508789 19.6378C0.508789 29.9312 8.90148 38.2756 19.2544 38.2756Z" stroke="#E95416" stroke-width="0.75"/>
<path id="Shape" d="M18.2797 25.1481L18.2643 20.4537H16.2559V18.4418H18.2643V17.1005C18.2643 15.2903 19.3834 14.418 20.9954 14.418C21.7676 14.418 22.4312 14.4756 22.6246 14.5013V16.393L21.5066 16.3935C20.6299 16.3935 20.4601 16.8109 20.4601 17.4232V18.4418H22.9507L22.2812 20.4537H20.4601V25.1481H18.2797Z" fill="#F49217"/>
</g>
</svg>
