<svg width="41" height="40" viewBox="0 0 41 40" fill="none" xmlns="http://www.w3.org/2000/svg">
<g id="Frame" clip-path="url(#clip0_157_1158)">
<g id="Group">
<path id="Vector" d="M20.5 39.9999C9.47632 39.9999 0.5 31.0239 0.5 19.9999C0.5 8.97627 9.47632 -4.65122e-05 20.5 -4.65122e-05C23.1275 -0.00729224 25.7305 0.506659 28.1581 1.51206C30.5858 2.51747 32.7899 3.99436 34.643 5.85726L35.3213 6.53556L28.5834 13.262L27.9048 12.5833C24.694 9.37806 19.785 8.60386 15.7434 10.665C11.7018 12.7263 9.44632 17.155 10.156 21.636C10.8655 26.117 14.379 29.6319 18.8596 30.3438C23.3403 31.0556 27.7701 28.8026 29.8334 24.762H19.5475V15.2381H39.9404L40.0954 15.9998C40.3636 17.3163 40.4991 18.6564 40.4999 19.9999C40.4999 31.0239 31.5239 39.9999 20.5 39.9999ZM20.5 1.90495C10.5237 1.90495 2.40464 10.0237 2.40464 19.9999C2.40464 29.9761 10.5237 38.0952 20.5 38.0952C30.4762 38.0952 38.5953 29.9761 38.5953 19.9999C38.5946 19.0431 38.5189 18.0878 38.3689 17.1428H21.4525V22.857H32.619L32.1667 24.1308C30.3531 29.2442 25.4215 32.5811 20.0001 32.3628C14.5792 32.1448 9.93185 28.4227 8.53462 23.18C7.13748 17.9376 9.31659 12.3964 13.9099 9.50949C18.5036 6.62244 24.4417 7.06262 28.5594 10.5953L32.6072 6.5478C29.2904 3.54666 24.973 1.89107 20.5 1.90495Z" fill="#F49217"/>
</g>
</g>
<defs>
<clipPath id="clip0_157_1158">
<rect width="40" height="40" fill="white" transform="translate(0.5)"/>
</clipPath>
</defs>
</svg>
