<svg width="100" height="100" viewBox="0 0 100 100" fill="none" xmlns="http://www.w3.org/2000/svg">
<g id="Frame">
<g id="Group">
<path id="Vector" d="M85.1111 87.0371H22.6296C20.6074 87.0371 18.5926 85.4223 18.5926 83.0001C18.5926 80.7408 20.4074 78.926 22.6296 78.926H85.1111C87.2 78.926 88.8148 77.1779 88.8148 75.2223L88.7778 14.7408C88.7778 12.3048 87.8101 9.9685 86.0875 8.24594C84.3649 6.52339 82.0286 5.55566 79.5926 5.55566H22.6296C16.5 5.55566 11.1852 10.5742 11.1852 17.0001V83.0001C11.1852 89.5186 16.5 94.4445 22.6296 94.4445H85.1111C87.1481 94.4445 88.8148 92.7779 88.8148 90.7408C88.8148 88.7038 87.1481 87.0371 85.1111 87.0371ZM18.5926 17.0001C18.5926 14.8149 20.4444 12.9631 22.6296 12.9631H26.037V71.5186C23.7074 71.6668 21.7481 71.1223 18.5926 72.2594V17.0001ZM45.2963 35.4446C45.2963 33.4816 46.3704 31.6668 48.0741 30.7409C49.7778 29.7779 51.8889 29.852 53.5556 30.926L64.1481 37.7408C65.7037 38.7038 66.6296 40.4075 66.6296 42.2594C66.6296 44.0742 65.7037 45.7779 64.1481 46.7408L53.5556 53.5557C52.7443 54.08 51.8059 54.3742 50.8404 54.4069C49.875 54.4395 48.9189 54.2093 48.0741 53.7408C46.3704 52.8149 45.2963 51.0001 45.2963 49.0371V35.4446Z" fill="white"/>
</g>
</g>
</svg>
