<svg width="13" height="13" viewBox="0 0 13 13" fill="none" xmlns="http://www.w3.org/2000/svg">
<g id="Group 237605">
<path id="Vector" d="M2.67319 7.94502C3.4894 7.94502 4.15106 7.29805 4.15106 6.49998C4.15106 5.70191 3.4894 5.05495 2.67319 5.05495C1.85698 5.05495 1.19531 5.70191 1.19531 6.49998C1.19531 7.29805 1.85698 7.94502 2.67319 7.94502Z" stroke="#D5D5D5" stroke-width="1.08378" stroke-linecap="round" stroke-linejoin="round"/>
<path id="Vector_2" d="M10.555 3.60992C11.3712 3.60992 12.0329 2.96296 12.0329 2.16489C12.0329 1.36682 11.3712 0.719852 10.555 0.719852C9.73882 0.719852 9.07715 1.36682 9.07715 2.16489C9.07715 2.96296 9.73882 3.60992 10.555 3.60992Z" stroke="#D5D5D5" stroke-width="1.08378" stroke-linecap="round" stroke-linejoin="round"/>
<path id="Vector_3" d="M10.555 12.2801C11.3712 12.2801 12.0329 11.6332 12.0329 10.8351C12.0329 10.037 11.3712 9.39007 10.555 9.39007C9.73882 9.39007 9.07715 10.037 9.07715 10.8351C9.07715 11.6332 9.73882 12.2801 10.555 12.2801Z" stroke="#D5D5D5" stroke-width="1.08378" stroke-linecap="round" stroke-linejoin="round"/>
<path id="Vector_4" d="M3.96045 7.20837L9.26664 10.1267M9.26664 2.87327L3.96045 5.79164" stroke="#D5D5D5" stroke-width="1.08378" stroke-linecap="round" stroke-linejoin="round"/>
</g>
</svg>
