<svg width="39" height="39" viewBox="0 0 39 39" fill="none" xmlns="http://www.w3.org/2000/svg">
<path d="M19.7456 38.5512C30.0985 38.5512 38.4912 30.2068 38.4912 19.9134C38.4912 9.62003 30.0985 1.2756 19.7456 1.2756C9.3927 1.2756 1 9.62003 1 19.9134C1 30.2068 9.3927 38.5512 19.7456 38.5512Z" stroke="#E95416" stroke-width="0.75"/>
<g clip-path="url(#clip0_726_608)">
<path d="M22.5576 14.3244H16.9339C15.381 14.3244 14.1221 15.5761 14.1221 17.1201V22.7114C14.1221 24.2554 15.381 25.5071 16.9339 25.5071H22.5576C24.1105 25.5071 25.3694 24.2554 25.3694 22.7114V17.1201C25.3694 15.5761 24.1105 14.3244 22.5576 14.3244Z" stroke="#F49217" stroke-width="1.5" stroke-linecap="round" stroke-linejoin="round"/>
<path d="M21.9951 19.564C22.0645 20.0293 21.9846 20.5045 21.7667 20.9221C21.5488 21.3397 21.204 21.6783 20.7813 21.8898C20.3587 22.1013 19.8797 22.1749 19.4126 22.1002C18.9455 22.0254 18.5139 21.8061 18.1794 21.4735C17.8448 21.1409 17.6242 20.7118 17.5491 20.2473C17.4739 19.7829 17.548 19.3067 17.7607 18.8865C17.9734 18.4663 18.314 18.1235 18.7339 17.9068C19.1539 17.6902 19.6319 17.6107 20.0999 17.6797C20.5774 17.7501 21.0193 17.9712 21.3606 18.3106C21.7019 18.6499 21.9243 19.0893 21.9951 19.564Z" stroke="#F49217" stroke-width="1.5" stroke-linecap="round" stroke-linejoin="round"/>
<ellipse cx="22.8379" cy="16.8389" rx="0.843751" ry="0.838701" fill="white"/>
</g>
<defs>
<clipPath id="clip0_726_608">
<rect width="13.4968" height="13.4192" fill="white" transform="translate(12.9971 13.2053)"/>
</clipPath>
</defs>
</svg>
