<svg width="14" height="14" viewBox="0 0 14 14" fill="none" xmlns="http://www.w3.org/2000/svg">
<g id="instagram 2" clip-path="url(#clip0_39_2669)">
<path id="Vector" d="M10.0664 1.32443H4.4427C2.88976 1.32443 1.63086 2.5761 1.63086 4.1201V9.71144C1.63086 11.2554 2.88976 12.5071 4.4427 12.5071H10.0664C11.6193 12.5071 12.8782 11.2554 12.8782 9.71144V4.1201C12.8782 2.5761 11.6193 1.32443 10.0664 1.32443Z" stroke="#F49217" stroke-width="1.5" stroke-linecap="round" stroke-linejoin="round"/>
<path id="Vector_2" d="M9.50392 6.56396C9.57332 7.0293 9.49338 7.50455 9.27546 7.92211C9.05754 8.33967 8.71275 8.67828 8.29011 8.88978C7.86748 9.10128 7.38854 9.17489 6.9214 9.10016C6.45426 9.02542 6.02272 8.80614 5.68815 8.4735C5.35359 8.14085 5.13304 7.71179 5.05787 7.24734C4.9827 6.78289 5.05674 6.3067 5.26946 5.8865C5.48219 5.4663 5.82276 5.12349 6.24273 4.90682C6.66271 4.69016 7.14071 4.61068 7.60873 4.67968C8.08614 4.75007 8.52812 4.97125 8.86939 5.31056C9.21066 5.64986 9.43312 6.0893 9.50392 6.56396Z" stroke="#F49217" stroke-width="1.5" stroke-linecap="round" stroke-linejoin="round"/>
<ellipse id="Ellipse 36" cx="10.3467" cy="3.83891" rx="0.843751" ry="0.838701" fill="white"/>
</g>
<defs>
<clipPath id="clip0_39_2669">
<rect width="13.4968" height="13.4192" fill="white" transform="translate(0.505859 0.205292)"/>
</clipPath>
</defs>
</svg>
