<svg width="74" height="74" viewBox="0 0 74 74" fill="none" xmlns="http://www.w3.org/2000/svg">
<g id="Group 237614">
<circle id="Ellipse 165" cx="37" cy="37" r="37" fill="#FFEBD1"/>
<g id="monitor-mobbile">
<path id="Vector" d="M33.1667 45.2501H26.85C21.2334 45.2501 19.8334 43.8501 19.8334 38.2334V28.2334C19.8334 22.6167 21.2334 21.2167 26.85 21.2167H44.4C50.0167 21.2167 51.4167 22.6167 51.4167 28.2334" stroke="#F49217" stroke-width="2" stroke-linecap="round" stroke-linejoin="round"/>
<path id="Vector_2" d="M33.1666 52.7833V45.2499" stroke="#F49217" stroke-width="2" stroke-linecap="round" stroke-linejoin="round"/>
<path id="Vector_3" d="M19.8334 38.5833H33.1667" stroke="#F49217" stroke-width="2" stroke-linecap="round" stroke-linejoin="round"/>
<path id="Vector_4" d="M27.7333 52.7833H33.1666" stroke="#F49217" stroke-width="2" stroke-linecap="round" stroke-linejoin="round"/>
<path id="Vector_5" d="M53.1668 38.3333V47.85C53.1668 51.8 52.1834 52.7833 48.2334 52.7833H42.3168C38.3668 52.7833 37.3834 51.8 37.3834 47.85V38.3333C37.3834 34.3833 38.3668 33.4 42.3168 33.4H48.2334C52.1834 33.4 53.1668 34.3833 53.1668 38.3333Z" stroke="#F49217" stroke-width="2" stroke-linecap="round" stroke-linejoin="round"/>
<path id="Vector_6" d="M45.2408 47.4166H45.2558" stroke="#F49217" stroke-width="2" stroke-linecap="round" stroke-linejoin="round"/>
</g>
</g>
</svg>
