<svg width="74" height="74" viewBox="0 0 74 74" fill="none" xmlns="http://www.w3.org/2000/svg">
<g id="Group 237614">
<circle id="Ellipse 165" cx="37" cy="37" r="37" fill="#FFEBD1"/>
<g id="tag-user">
<path id="Vector" d="M46.5 48.4334H45.2333C43.9 48.4334 42.6333 48.95 41.7 49.8834L38.85 52.7C37.55 53.9834 35.4334 53.9834 34.1334 52.7L31.2833 49.8834C30.35 48.95 29.0667 48.4334 27.75 48.4334H26.5C23.7333 48.4334 21.5 46.2167 21.5 43.4834V25.2834C21.5 22.55 23.7333 20.3334 26.5 20.3334H46.5C49.2667 20.3334 51.5 22.55 51.5 25.2834V43.4667C51.5 46.2 49.2667 48.4334 46.5 48.4334Z" stroke="#F49217" stroke-width="2" stroke-miterlimit="10" stroke-linecap="round" stroke-linejoin="round"/>
<g id="Group">
<path id="Vector_2" d="M36.6167 31.9167C36.55 31.9167 36.45 31.9167 36.3666 31.9167C34.6166 31.8501 33.2333 30.4334 33.2333 28.6667C33.2333 26.8667 34.6833 25.4167 36.4833 25.4167C38.2833 25.4167 39.7333 26.8834 39.7333 28.6667C39.75 30.4334 38.3667 31.8667 36.6167 31.9167Z" stroke="#F49217" stroke-width="2" stroke-linecap="round" stroke-linejoin="round"/>
<path id="Vector_3" d="M31.9164 36.9335C29.6997 38.4168 29.6997 40.8335 31.9164 42.3168C34.4331 44.0001 38.5664 44.0001 41.0831 42.3168C43.2997 40.8335 43.2997 38.4168 41.0831 36.9335C38.5664 35.2668 34.4497 35.2668 31.9164 36.9335Z" stroke="#F49217" stroke-width="2" stroke-linecap="round" stroke-linejoin="round"/>
</g>
</g>
</g>
</svg>
