<svg width="50" height="50" viewBox="0 0 50 50" fill="none" xmlns="http://www.w3.org/2000/svg">
<g id="iconoir:quote-solid">
<path id="Vector" fill-rule="evenodd" clip-rule="evenodd" d="M19.1937 26.5625C19.0187 28.175 18.552 29.4625 17.7395 30.6042C16.6499 32.1271 14.8228 33.55 11.802 35.0625C11.6082 35.1477 11.4337 35.2714 11.2892 35.4261C11.1447 35.5807 11.0331 35.7632 10.9612 35.9623C10.8893 36.1614 10.8586 36.373 10.871 36.5844C10.8834 36.7957 10.9386 37.0023 11.0333 37.1917C11.128 37.381 11.2601 37.5491 11.4217 37.6858C11.5834 37.8226 11.7711 37.925 11.9735 37.987C12.1759 38.0489 12.3889 38.0691 12.5993 38.0463C12.8098 38.0234 13.0134 37.9581 13.1978 37.8542C16.427 36.2417 18.7666 34.5396 20.2812 32.4167C21.8249 30.2583 22.3958 27.8271 22.3958 25V15.625C22.3958 14.6581 22.0116 13.7307 21.3279 13.047C20.6442 12.3633 19.7169 11.9792 18.7499 11.9792H10.4166C9.44965 11.9792 8.52232 12.3633 7.83859 13.047C7.15487 13.7307 6.77075 14.6581 6.77075 15.625V22.9167C6.77075 24.9292 8.40409 26.5625 10.4166 26.5625H19.1937ZM40.027 26.5625C39.852 28.175 39.3853 29.4625 38.5728 30.6042C37.4832 32.1271 35.6562 33.55 32.6353 35.0625C32.4415 35.1477 32.2671 35.2714 32.1225 35.4261C31.978 35.5807 31.8664 35.7632 31.7945 35.9623C31.7226 36.1614 31.6919 36.373 31.7043 36.5844C31.7167 36.7957 31.7719 37.0023 31.8666 37.1917C31.9613 37.381 32.0934 37.5491 32.2551 37.6858C32.4167 37.8226 32.6044 37.925 32.8069 37.987C33.0093 38.0489 33.2222 38.0691 33.4326 38.0463C33.6431 38.0234 33.8467 37.9581 34.0312 37.8542C37.2603 36.2417 39.5999 34.5396 41.1145 32.4167C42.6583 30.2583 43.2291 27.8271 43.2291 25V15.625C43.2291 14.6581 42.845 13.7307 42.1612 13.047C41.4775 12.3633 40.5502 11.9792 39.5833 11.9792H31.2499C30.283 11.9792 29.3556 12.3633 28.6719 13.047C27.9882 13.7307 27.6041 14.6581 27.6041 15.625V22.9167C27.6041 24.9292 29.2374 26.5625 31.2499 26.5625H40.027Z" fill="white"/>
</g>
</svg>
