<svg width="50" height="50" viewBox="0 0 50 50" fill="none" xmlns="http://www.w3.org/2000/svg">
<g id="iconoir:quote-solid">
<path id="Vector" fill-rule="evenodd" clip-rule="evenodd" d="M30.8063 23.4375C30.9813 21.825 31.448 20.5375 32.2605 19.3958C33.3501 17.8729 35.1772 16.45 38.198 14.9375C38.3918 14.8523 38.5663 14.7286 38.7108 14.574C38.8553 14.4193 38.9669 14.2369 39.0388 14.0377C39.1107 13.8386 39.1414 13.627 39.129 13.4156C39.1166 13.2043 39.0614 12.9977 38.9667 12.8084C38.872 12.619 38.7399 12.4509 38.5783 12.3142C38.4166 12.1774 38.2289 12.075 38.0265 12.013C37.8241 11.9511 37.6111 11.9309 37.4007 11.9537C37.1902 11.9766 36.9866 12.0419 36.8022 12.1458C33.573 13.7583 31.2334 15.4604 29.7188 17.5833C28.1751 19.7417 27.6042 22.1729 27.6042 25L27.6042 34.375C27.6042 35.3419 27.9884 36.2693 28.6721 36.953C29.3558 37.6367 30.2831 38.0208 31.2501 38.0208L39.5834 38.0208C40.5503 38.0208 41.4777 37.6367 42.1614 36.953C42.8451 36.2693 43.2292 35.3419 43.2292 34.375L43.2292 27.0833C43.2292 25.0708 41.5959 23.4375 39.5834 23.4375L30.8063 23.4375ZM9.973 23.4375C10.148 21.825 10.6147 20.5375 11.4272 19.3958C12.5167 17.8729 14.3438 16.45 17.3647 14.9375C17.5585 14.8523 17.7329 14.7286 17.8775 14.574C18.022 14.4193 18.1336 14.2369 18.2055 14.0377C18.2774 13.8386 18.3081 13.627 18.2957 13.4156C18.2833 13.2043 18.2281 12.9977 18.1334 12.8084C18.0387 12.619 17.9066 12.4509 17.7449 12.3142C17.5833 12.1775 17.3956 12.075 17.1931 12.013C16.9907 11.9511 16.7778 11.9309 16.5674 11.9537C16.3569 11.9766 16.1533 12.0419 15.9688 12.1458C12.7397 13.7583 10.4001 15.4604 8.8855 17.5833C7.34175 19.7417 6.77091 22.1729 6.77091 25L6.77092 34.375C6.77092 35.3419 7.15503 36.2693 7.83876 36.953C8.52248 37.6367 9.44981 38.0208 10.4167 38.0208L18.7501 38.0208C19.717 38.0208 20.6444 37.6367 21.3281 36.953C22.0118 36.2693 22.3959 35.3419 22.3959 34.375L22.3959 27.0833C22.3959 25.0708 20.7626 23.4375 18.7501 23.4375L9.973 23.4375Z" fill="white"/>
</g>
</svg>
