<svg width="39" height="39" viewBox="0 0 39 39" fill="none" xmlns="http://www.w3.org/2000/svg">
<g id="twitter">
<path id="Oval Copy" d="M19.2544 37.8268C29.6073 37.8268 38 29.4823 38 19.189C38 8.8956 29.6073 0.551178 19.2544 0.551178C8.90148 0.551178 0.508789 8.8956 0.508789 19.189C0.508789 29.4823 8.90148 37.8268 19.2544 37.8268Z" stroke="#E95416" stroke-width="0.75"/>
<g id="logo-twitter">
<path id="Shape" d="M24.7176 15.7222C24.3159 15.9234 23.9143 15.9904 23.4456 16.0575C23.9143 15.7892 24.249 15.3869 24.3829 14.8503C23.9812 15.1186 23.5126 15.2527 22.977 15.3869C22.5753 14.9845 21.9727 14.7162 21.3702 14.7162C20.2321 14.7162 19.2279 15.7222 19.2279 16.9293C19.2279 17.1305 19.2279 17.2646 19.2948 17.3988C17.4872 17.3317 15.8135 16.4599 14.7423 15.1186C14.5414 15.4539 14.4745 15.7892 14.4745 16.2587C14.4745 16.9964 14.8762 17.667 15.4787 18.0694C15.144 18.0694 14.8092 17.9353 14.4745 17.8011C14.4745 18.8742 15.2109 19.746 16.2152 19.9472C16.0143 20.0142 15.8135 20.0142 15.6126 20.0142C15.4787 20.0142 15.3448 20.0142 15.2109 19.9472C15.4787 20.819 16.2821 21.4896 17.2863 21.4896C16.5499 22.0932 15.6126 22.4285 14.5414 22.4285C14.3406 22.4285 14.2067 22.4285 14.0059 22.4285C15.0101 23.0321 16.1482 23.4345 17.3533 23.4345C21.3702 23.4345 23.5795 20.0813 23.5795 17.1976C23.5795 17.1305 23.5795 16.9964 23.5795 16.9293C24.0482 16.594 24.4498 16.1916 24.7176 15.7222Z" fill="#F49217"/>
</g>
</g>
</svg>
